<svg id="Component_2_1" data-name="Component 2 – 1" xmlns="http://www.w3.org/2000/svg" xmlnsXlink="http://www.w3.org/1999/xlink" width="155" height="32.347" viewBox="0 0 155 32.347">
  <defs>
    <clipPath id="clip-path">
      <path id="Path_4" data-name="Path 4" d="M0-19.825H155V-52.172H0Z" transform="translate(0 52.172)" fill="none"/>
    </clipPath>
  </defs>
  <g id="Group_4" data-name="Group 4" clip-path="url(#clip-path)">
    <g id="Group_1" data-name="Group 1" transform="translate(33.251 6.601)">
      <path id="Path_1" data-name="Path 1" d="M-6.016,0a9.429,9.429,0,0,0-9.815,9.81,9.43,9.43,0,0,0,9.815,9.81,9.5,9.5,0,0,0,7.185-3.027,9.871,9.871,0,0,0,1.887-3.076H-2.5a3.738,3.738,0,0,1-.85.848,4.652,4.652,0,0,1-2.665.814,4.11,4.11,0,0,1-4.259-3.884h13.7l.077-.45a9.141,9.141,0,0,0,.11-1.4A9.3,9.3,0,0,0-6.016,0m-4.259,7.956c.557-2.481,2-3.7,4.259-3.7s3.7,1.223,4.259,3.7Z" transform="translate(15.831)" fill="#ffa300"/>
    </g>
    <g id="Group_2" data-name="Group 2" transform="translate(54.922 6.601)">
      <path id="Path_2" data-name="Path 2" d="M-6.468-4.765l-2.777-.373c-1.667-.259-2.225-.738-2.225-1.48,0-.924.891-1.668,2.781-1.668a3.3,3.3,0,0,1,2.446.854,2.253,2.253,0,0,1,.517.815H-.36A6.409,6.409,0,0,0-1.54-9.578c-1.078-1.486-3.191-2.96-7.15-2.96-5.374,0-8.145,2.773-8.145,5.921s1.81,4.967,6.292,5.556l2.776.373C-6.1-.43-5.542.016-5.542,1.16c0,.926-.889,1.85-2.964,1.85A3.064,3.064,0,0,1-11.245,1.9a2,2,0,0,1-.407-1.11h-5.369a6.208,6.208,0,0,0,1.067,3.151c1.118,1.595,3.153,3.143,7.449,3.143,5.555,0,8.332-2.774,8.332-5.922,0-3.366-2-5.37-6.295-5.925" transform="translate(17.022 12.539)" fill="#ffa300"/>
    </g>
    <g id="Group_3" data-name="Group 3" transform="translate(73.255 1.633)">
      <path id="Path_3" data-name="Path 3" d="M-5.222,0h-5.556V5.336h-2.963v5.183h2.963v8.517c0,3.372,1.815,5.188,5.369,5.188H.213V19.036H-3.926a1.153,1.153,0,0,1-1.3-1.3V10.519H.213V5.336H-5.222Z" transform="translate(13.741)" fill="#ffa300"/>
    </g>
  </g>
  <path id="Path_5" data-name="Path 5" d="M146.288-22.043h5.556V-40.931h-5.556Z" transform="translate(-55.59 47.9)" fill="#ffa300"/>
  <path id="Path_6" data-name="Path 6" d="M146.288-47.947h5.556v-4.224h-5.556Z" transform="translate(-55.59 52.172)" fill="#ffa300"/>
  <path id="Path_7" data-name="Path 7" d="M198.567-22.043h5.557V-40.931h-5.557Z" transform="translate(-75.455 47.9)" fill="#ffa300"/>
  <path id="Path_8" data-name="Path 8" d="M198.567-47.947h5.557v-4.224h-5.557Z" transform="translate(-75.455 52.172)" fill="#ffa300"/>
  <g id="Group_6" data-name="Group 6" clip-path="url(#clip-path)">
    <g id="Group_5" data-name="Group 5" transform="translate(132.003 1.633)">
      <path id="Path_9" data-name="Path 9" d="M-5.22,0h-5.556V5.336h-2.961v5.183h2.961v8.517c0,3.372,1.815,5.188,5.369,5.188H.217V19.036H-3.927a1.154,1.154,0,0,1-1.293-1.3V10.519H.217V5.336H-5.22Z" transform="translate(13.737)" fill="#ffa300"/>
    </g>
  </g>
  <path id="Path_11" data-name="Path 11" d="M241.038-47.947h5.556v-4.224h-5.556Z" transform="translate(-91.595 52.172)" fill="#ffa300"/>
  <path id="Path_12" data-name="Path 12" d="M241.038-22.044h5.556V-40.931h-5.556Z" transform="translate(-91.595 47.9)" fill="#ffa300"/>
  <g id="Group_8" data-name="Group 8" clip-path="url(#clip-path)">
    <g id="Group_7" data-name="Group 7" transform="translate(99.776 6.6)">
      <path id="Path_13" data-name="Path 13" d="M-8.4-1.359h-.19A6.687,6.687,0,0,0-9.734-2.476a6.276,6.276,0,0,0-3.667-1.1c-5.034,0-8.7,3.7-8.7,9.068s3.664,9.077,8.7,9.077a6.032,6.032,0,0,0,3.335-.931,4.444,4.444,0,0,0,1.108-.923h.19v2.975a1.157,1.157,0,0,1-1.3,1.293h-8.557v5.187h10.04c3.555,0,5.368-1.815,5.368-5.187V-3.208H-8.028Zm-4.41,11.636c-2.3,0-4.037-2.051-4.037-4.786S-15.111.71-12.808.71s4.039,2.05,4.039,4.781-1.732,4.786-4.039,4.786" transform="translate(22.1 3.577)" fill="#ffa300"/>
    </g>
  </g>
  <path id="Path_15" data-name="Path 15" d="M11.135-43.322H28.616v-6.907H11.135Z" transform="translate(-4.231 51.434)" fill="#ffa300"/>
  <g id="Group_9" data-name="Group 9" transform="translate(0 8.112)">
    <path id="Path_16" data-name="Path 16" d="M0,0V12.2H17.478V5.287H6.9V0Z" fill="#ffa300"/>
  </g>
  <path id="Path_17" data-name="Path 17" d="M11.135-6.173H28.616v-6.9H11.135Z" transform="translate(-4.231 37.315)" fill="#ffa300"/>
</svg>
